<svg width="39" height="68" xmlns="http://www.w3.org/2000/svg">
 <!-- Created with Method Draw - http://github.com/duopixel/Method-Draw/ -->
 <g>
  <title>background</title>
  <rect fill="#fff" id="canvas_background" height="70" width="41" y="-1" x="-1"/>
  <g display="none" overflow="visible" y="0" x="0" height="100%" width="100%" id="canvasGrid">
   <rect fill="url(#gridpattern)" stroke-width="0" y="0" x="0" height="100%" width="100%"/>
  </g>
 </g>
 <g>
  <title>Layer 1</title>
  <path id="svg_2" d="m2.892434,67.886872c-2.776538,-0.691667 -3.733973,-5.52355 -2.07861,-8.418375c2.196876,-4.477045 6.896205,-7.495139 10.578184,-4.670236c0.073373,-15.817335 0.03104,-31.635539 0.042255,-47.453263c9.18059,-2.50179 18.381937,-4.863918 27.565737,-7.344999c-0.019894,17.669608 -0.039779,35.339216 -0.059668,53.008823c-1.438817,5.344348 -6.087959,9.050328 -10.136182,7.393132c-2.410111,-0.993788 -2.987905,-5.279068 -1.645856,-7.904715c1.837806,-3.916653 5.258421,-6.605779 8.697241,-5.872148c0.981344,-0.136747 2.426448,2.051801 2.011664,-0.424007c-0.034066,-13.975891 0.084725,-27.955507 -0.087654,-41.928456c-1.498269,-0.766224 -4.162803,0.996694 -6.081166,1.139323c-6.415094,1.719826 -12.843902,3.348516 -19.244263,5.168874c0.193117,15.485776 0.103065,30.981033 0.074315,46.470083c0.339803,3.535724 -1.074917,6.866322 -3.226012,8.709421c-1.856234,1.859943 -4.149603,2.530424 -6.409985,2.126548l-0.000002,-0.000007z" fill-opacity="null" stroke-opacity="null" stroke-width="0" stroke="#000" fill="#0fffff"/>
 </g>
</svg>