<svg width="101" height="138" xmlns="http://www.w3.org/2000/svg">
 <!-- Created with Method Draw - http://github.com/duopixel/Method-Draw/ -->
 <g>
  <title>background</title>
  <rect fill="#fff" id="canvas_background" height="140" width="103" y="-1" x="-1"/>
  <g display="none" overflow="visible" y="0" x="0" height="100%" width="100%" id="canvasGrid">
   <rect fill="url(#gridpattern)" stroke-width="0" y="0" x="0" height="100%" width="100%"/>
  </g>
 </g>
 <g>
  <title>Layer 1</title>
  <path id="svg_1" d="m14.102041,137.695678c-7.990993,-1.003594 -15.413334,-6.462232 -13.905834,-12.834312c0.762977,-6.995244 8.236141,-12.625245 15.755291,-16.334635c10.007001,-5.068837 23.689378,-6.951814 34.71729,-2.580035c0.64617,-35.260383 0.277908,-70.529596 0.37579,-105.793965c6.954263,-1.252851 4.705731,5.521569 6.285156,8.654436c1.507103,9.212325 9.811665,16.440913 18.077887,22.895684c10.255603,8.113355 21.145594,16.715961 24.479037,27.95648c3.64003,13.041455 -2.179149,26.382997 -9.730904,38.070633c-0.546843,3.745774 -9.781392,9.165048 -5.381727,2.396237c7.408265,-11.579223 13.528444,-24.914624 8.471833,-37.736802c-4.815364,-12.794117 -19.824495,-23.479119 -37.691822,-25.395025c-0.115474,27.015734 0.281188,54.036576 -0.42345,81.047982c-1.756555,7.956613 -11.044847,13.860347 -20.35937,17.23144c-6.422804,2.080676 -13.671829,3.339567 -20.669169,2.42189l-0.000006,-0.000009z" stroke-width="0" stroke="#000" fill="#f38630"/>
 </g>
</svg>