<svg width="56" height="85" xmlns="http://www.w3.org/2000/svg">
 <!-- Created with Method Draw - http://github.com/duopixel/Method-Draw/ -->
 <g>
  <title>background</title>
  <rect fill="#fff" id="canvas_background" height="87" width="58" y="-1" x="-1"/>
 </g>
 <g>
  <title>Layer 1</title>
  <path stroke="null" id="svg_1" d="m4.153242,84.864138c-3.986823,-0.864641 -5.361598,-6.904888 -2.984667,-10.523656c3.154487,-5.596674 9.902237,-9.369536 15.189183,-5.838176c0.10537,-19.708128 0.044556,-39.41733 0.060672,-59.125932c13.182686,-3.189388 26.393877,-6.214737 39.581557,-9.376375c-0.028558,22.088451 -0.057119,44.176903 -0.085677,66.265351c-2.065986,6.680871 -8.741682,11.313649 -14.554507,9.242018c-3.460676,-1.242316 -4.290325,-6.599265 -2.363287,-9.881539c2.638905,-4.896136 7.550551,-8.257762 12.48835,-7.340664c1.409109,-0.170945 3.484119,2.564919 2.888535,-0.530043c0,-13.278269 0,-26.556532 0,-39.834799c-12.101144,2.921379 -24.226222,5.703998 -36.332964,8.593767c-0.054213,16.018837 0.13439,32.043478 -0.139294,48.057667c-0.834185,5.375938 -5.241873,9.098957 -9.495061,10.184072c-1.404952,0.200758 -2.846765,0.374795 -4.252837,0.108307l-0.000002,0zm31.567072,-66.842602c6.217614,-1.467378 12.438157,-2.917132 18.653086,-4.40077c0.790933,-3.77872 -2.748738,-1.324709 -4.479802,-1.232463c-10.616221,2.513208 -21.238572,4.989212 -31.853163,7.512188c-0.790935,3.77872 2.748736,1.324709 4.479807,1.232463c4.399577,-1.039849 8.799744,-2.076137 13.200072,-3.111418zm0,-6.613598c6.217614,-1.467378 12.438157,-2.917135 18.653086,-4.400773c0.790933,-3.778717 -2.748738,-1.324709 -4.479802,-1.23246c-10.616221,2.513208 -21.238572,4.989215 -31.853163,7.512188c-0.790935,3.77872 2.748736,1.324712 4.479807,1.232463c4.399577,-1.039846 8.799744,-2.076139 13.200072,-3.111418z" stroke-opacity="null" stroke-width="0" fill="#a7dbd8"/>
 </g>
</svg>