<svg width="192" height="192" xmlns="http://www.w3.org/2000/svg">
 <!-- Created with Method Draw - http://github.com/duopixel/Method-Draw/ -->
 <g>
  <title>background</title>
  <rect fill="#ffffff" id="canvas_background" height="194" width="194" y="-1" x="-1"/>
 </g>
 <g>
  <title>Layer 1</title>
  <path id="svg_1" d="m96.132107,46.509197c-27.417682,0 -49.622853,22.205163 -49.622853,49.622836c0,27.398764 22.205171,49.616533 49.622853,49.616533c27.392471,0 49.610248,-22.217769 49.610248,-49.616533c0.006303,-27.417672 -22.205171,-49.622836 -49.610248,-49.622836zm0,86.639845c-20.446658,-0.050423 -36.972902,-16.576662 -37.023325,-37.010706c0.04412,-20.440348 16.576668,-36.972889 37.023325,-37.023312c20.434052,0.050423 36.960296,16.582965 37.004417,37.023312c-0.04412,20.434045 -16.570365,36.960283 -37.004417,37.010706zm0,-89.96148c3.485512,0 6.302915,-2.823705 6.302915,-6.309216l0,-30.575432c-0.012606,-3.485511 -2.823706,-6.302913 -6.302915,-6.302913c-3.485512,0 -6.309218,2.830008 -6.302915,6.315519l0,30.569129c0,3.472905 2.817403,6.302913 6.302915,6.302913zm20.251267,4.021259c0.787864,0.334054 1.607243,0.479021 2.407714,0.485324c2.483349,0 4.82173,-1.468579 5.830197,-3.8952l11.698211,-28.25596c1.323612,-3.220789 -0.19539,-6.90169 -3.409877,-8.231605c-3.22079,-1.329915 -6.907995,0.19539 -8.244213,3.409876l-11.691908,28.262263c-1.329915,3.214486 0.19539,6.90169 3.409877,8.225302zm17.175445,11.477605c1.229069,1.222765 2.842615,1.846754 4.456161,1.846754s3.227093,-0.617685 4.456161,-1.846754l21.619,-21.637901c2.46444,-2.458136 2.458137,-6.44788 0,-8.918622c-2.470743,-2.458136 -6.460488,-2.458136 -8.918625,0.012606l-21.612697,21.625295c-2.46444,2.464439 -2.46444,6.454183 0,8.918622zm11.490215,17.169136c0.995861,2.426622 3.346848,3.888897 5.817591,3.888897c0.80047,0 1.619849,-0.157573 2.414017,-0.491627l28.237061,-11.70451c3.22079,-1.329915 4.746095,-5.023422 3.409877,-8.237908s-5.017121,-4.739791 -8.23791,-3.403573l-28.243364,11.70451c-3.214487,1.336218 -4.73349,5.029725 -3.397271,8.24421zm40.899618,13.935741l-30.575443,0.006303c-3.479209,0 -6.302915,2.823705 -6.29031,6.309216c0,3.485511 2.817403,6.29661 6.29031,6.29661l30.581746,-0.012606c3.485512,0 6.296613,-2.830008 6.296613,-6.302913c0,-3.485511 -2.823706,-6.309216 -6.302915,-6.29661zm-4.399435,34.842504l-28.249667,-11.685601c-3.227093,-1.336218 -6.914298,0.189087 -8.23791,3.409876c-1.329915,3.220789 0.19539,6.907993 3.409877,8.24421l28.249667,11.685601c0.794167,0.321449 1.613546,0.472718 2.414017,0.472718c2.477046,0 4.82173,-1.462276 5.830197,-3.888897c1.323612,-3.220789 -0.207996,-6.914296 -3.41618,-8.237908zm-39.040258,8.906016c-2.46444,-2.464439 -6.447883,-2.464439 -8.912322,0.006303c-2.46444,2.458136 -2.458137,6.441577 0,8.906016l21.644212,21.612689c1.229069,1.229068 2.836312,1.846754 4.449858,1.846754s3.233396,-0.617685 4.462464,-1.846754c2.46444,-2.470742 2.451834,-6.460486 0,-8.918622l-21.644212,-21.606387zm-17.843554,14.893784c-1.329915,-3.220789 -5.017121,-4.739791 -8.23791,-3.409876c-3.214487,1.336218 -4.739792,5.023422 -3.403574,8.24421l11.723423,28.237051c1.002164,2.426622 3.346848,3.888897 5.830197,3.888897c0.806773,0 1.626152,-0.15127 2.414017,-0.479021c3.22079,-1.329915 4.739792,-5.023422 3.403574,-8.250513l-11.729726,-28.230748zm-28.470269,0.6492c-3.485512,0 -6.302915,2.823705 -6.302915,6.302913l0.025212,30.575432c0,3.485511 2.830009,6.29661 6.302915,6.29661c3.485512,0 6.302915,-2.823705 6.29031,-6.302913l-0.018909,-30.581735c0,-3.466602 -2.830009,-6.29661 -6.296613,-6.290307zm-20.270176,-4.008653c-3.214487,-1.323612 -6.89539,0.19539 -8.231608,3.422482l-11.672999,28.25596c-1.323612,3.220789 0.207996,6.907993 3.422483,8.237908c0.787864,0.327751 1.600941,0.479021 2.407714,0.479021c2.470743,0 4.82173,-1.474882 5.823894,-3.901503l11.679302,-28.268566c1.329915,-3.214486 -0.207996,-6.895387 -3.428786,-8.225302zm-17.181748,-11.452393c-2.470743,-2.464439 -6.460488,-2.451833 -8.918625,0.012606l-21.593788,21.637901c-2.46444,2.470742 -2.451834,6.44788 0.012606,8.918622c1.229069,1.222765 2.836312,1.840451 4.449858,1.840451c1.619849,0 3.233396,-0.617685 4.462464,-1.846754l21.600091,-21.644204c2.451834,-2.464439 2.451834,-6.454183 -0.012606,-8.918622zm-11.496518,-17.150227c-1.342521,-3.208183 -5.023424,-4.733488 -8.23791,-3.403573l-28.230758,11.729721c-3.22079,1.336218 -4.739792,5.029725 -3.403574,8.24421c1.008466,2.426622 3.346848,3.882595 5.823894,3.882595c0.80047,0 1.626152,-0.15127 2.414017,-0.479021l28.230758,-11.729721c3.208184,-1.348823 4.73349,-5.036028 3.403574,-8.24421zm-4.071683,-20.244957c0,-3.485511 -2.817403,-6.29661 -6.302915,-6.29661l-30.575443,0.037817c-3.485512,0 -6.309218,2.823705 -6.296613,6.309216c0.006303,3.472905 2.830009,6.302913 6.302915,6.290307l30.581746,-0.037817c3.479209,0 6.302915,-2.836311 6.29031,-6.302913zm-32.497832,-28.508076l28.268576,11.660389c0.787864,0.334054 1.600941,0.479021 2.401411,0.479021c2.477046,0 4.828033,-1.462276 5.830197,-3.8952c1.336218,-3.220789 -0.201693,-6.914296 -3.428786,-8.231605l-28.25597,-11.660389c-3.22079,-1.323612 -6.901692,0.201693 -8.231608,3.416179c-1.336218,3.220789 0.207996,6.895387 3.41618,8.231605zm39.033955,-8.937531c1.229069,1.216462 2.830009,1.834148 4.443555,1.834148s3.233396,-0.617685 4.468767,-1.859359c2.46444,-2.451833 2.451834,-6.44788 -0.025212,-8.912319l-21.644212,-21.581175c-2.458137,-2.458136 -6.460488,-2.44553 -8.912322,0.018909c-2.46444,2.458136 -2.451834,6.454183 0.012606,8.912319l21.656817,21.587478zm17.818342,-14.918996c1.008466,2.420319 3.353151,3.876292 5.817591,3.876292c0.806773,0 1.626152,-0.157573 2.42032,-0.485324c3.214487,-1.336218 4.746095,-5.029725 3.403574,-8.237908l-11.748634,-28.230748c-1.336218,-3.214486 -5.029727,-4.733488 -8.244213,-3.39727c-3.214487,1.342521 -4.73349,5.036028 -3.397271,8.24421l11.748634,28.230748z" stroke-opacity="null" stroke-width="0" stroke="#ffffff" fill="#c9ffff"/>
 </g>
</svg>